/* XPM */
static char *_816434f37344d2a9b782e80f166e48e[] = {
/* columns rows colors chars-per-pixel */
"32 32 89 1 ",
"  c #3B0B27",
". c #4C0E32",
"X c #530F36",
"o c #59103A",
"O c #641241",
"+ c #6B1445",
"@ c #74164B",
"# c #7B1751",
"$ c #8B0A53",
"% c #841856",
"& c #9B1C65",
"* c #A51E6B",
"= c #B32174",
"- c #BC237A",
"; c #C6197D",
": c #D01B83",
"> c #D91C88",
", c #FA1396",
"< c #FD1299",
"1 c #FC1C9B",
"2 c #C72382",
"3 c #CA2583",
"4 c #D8288D",
"5 c #DF2991",
"6 c #E22A94",
"7 c #EC2E96",
"8 c #EC2D99",
"9 c #FA239D",
"0 c #F32E9C",
"q c #F9299E",
"w c #ED3295",
"e c #EC3892",
"r c #F13696",
"t c #F2329A",
"y c #F8319F",
"u c #FC25A1",
"i c #FB2EA3",
"p c #FF24A8",
"a c #FF2FA8",
"s c #F736A3",
"d c #F933A2",
"f c #F73EA6",
"g c #F939A5",
"h c #FE31AA",
"j c #F642A7",
"k c #F649A6",
"l c #F646AA",
"z c #F54EAA",
"x c #F550AD",
"c c #F45EB1",
"v c #F361AE",
"b c #F563B4",
"n c #F36CB6",
"m c #FD61B9",
"M c #F46CB8",
"N c #F370B6",
"B c #F276BA",
"V c #F37BBE",
"C c #EF8CC1",
"Z c #F583C2",
"A c #F38CC4",
"S c #F096C7",
"D c #F39BC5",
"F c #F39DCD",
"G c #EFABCE",
"H c #F5A3CF",
"J c #F4A6D1",
"K c #F4AFD3",
"L c #EEB1D1",
"P c #F2B3D2",
"I c #F4BFD5",
"U c #F3B7D8",
"Y c #F5BBDB",
"T c #FFB5E2",
"R c #F4C4DD",
"E c #F5D0DE",
"W c #F3CEE1",
"Q c #F9CDE6",
"! c #EEDAE2",
"~ c #F4D1E3",
"^ c #F4DDE9",
"/ c #F5EBF0",
"( c #EEFCF3",
") c #F6F4F5",
"_ c #F9F1F5",
"` c #FAF7F9",
"' c #F6FFFD",
"] c #FDFFFE",
"[ c None",
/* pixels */
"[[[[[[[[[[[[[[[[[[[[[[[[[[[[[[[[",
"[[[[[[[[[[[[[[[[[[[[[[[[[[[[[[[[",
"[[[[[[[[[[[[[rr00tw[[[[[[[[[[[[[",
"[[[[[[[[[[ryiiiiiiiiyt[[[[[[[[[[",
"[[[[[[[[wdiiiiiiiiiiiiy7[[[[[[[[",
"[[[[[[[tiiiiiduiiiiiiiii0[[[[[[[",
"[[[[[[tiiiiiiiidiiuiiiiii0[[[[[[",
"[[[[[tiidiiiui9GLqzgiiiiii0[[[[[",
"[[[[eddiiiiij99)Ud(S9iiiiii7[[[[",
"[[[[iiiiii1C'WP'Zc'b1iiiiiii[[[[",
"[[[tiiiiiiuvI]]]]`]N9uiiiiiit[[[",
"[[[diiiiiiiu1^]_R_]'Rjuiiiii0[[[",
"[[[iiiiiiiiuj)]U,sF]]Wqiiiiii[[[",
"[[7iiiiiiiiuM']V<u1^]'ji7aiii7[[",
"[[tiiiiiiii1F]]Zidc)]/h2X%8ii0[[",
"[[0iiiiiiiiq~]]''/]])Vp- .6ai0[[",
"[[0iiiuiiiij`]RcJ)]]K1i@-4aii0[[",
"[[0idiiiiu<b]]Z<1dR]'Ap#+2hii0[[",
"[[7iiiiiucBY]`l1i<b]]Q:@#8iii7[[",
"[[[iiiii9!']]`VlsfY]]T$&O6iii[[[",
"[[[diiiidbDE]]]'_`]]'m;O*hiid[[[",
"[[[7iiiiiu<k'HK]`''/Z>#3=hii7[[[",
"[[[[diidii1A'sZ'zlxi98Oo-hii[[[[",
"[[[[7iiiiiuNGq!^99iiia06aii7[[[[",
"[[[[[0iiiiiu1dcvuiiiiiiaii0[[[[[",
"[[[[[[diiiiiiiuuiiiiiiiii0[[[[[[",
"[[[[[[[0iiiiiiiiiiiiiiii0[[[[[[[",
"[[[[[[[[8diiiiiiiiiiiid7[[[[[[[[",
"[[[[[[[[[[0diiiiiiiii0[[[[[[[[[[",
"[[[[[[[[[[[[[700007[[[[[[[[[[[[[",
"[[[[[[[[[[[[[[[[[[[[[[[[[[[[[[[[",
"[[[[[[[[[[[[[[[[[[[[[[[[[[[[[[[["
};
