/* XPM */
static char *c44bf865e3a44862cc0ebeca8c90b7260JlfOsnk2oTIFGKB[] = {
/* columns rows colors chars-per-pixel */
"16 16 93 2 ",
"   c None",
".  c #F28B00",
"X  c #F38B00",
"o  c #F28C00",
"O  c #F38D00",
"+  c #F39207",
"@  c #F39208",
"#  c #F3930A",
"$  c #F3940B",
"%  c #F3940C",
"&  c #F3940D",
"*  c #F3950E",
"=  c #F3950F",
"-  c #F39610",
";  c #F39611",
":  c #F49510",
">  c #F49611",
",  c #F49612",
"<  c #F49712",
"1  c #F49713",
"2  c #F49614",
"3  c #F49814",
"4  c #F49816",
"5  c #F49919",
"6  c #F49A19",
"7  c #F49A1A",
"8  c #F49A1B",
"9  c #F49B1B",
"0  c #F49B1C",
"q  c #F49C1E",
"w  c #F5A028",
"e  c #F5A12A",
"r  c #F5A533",
"t  c #F5A534",
"y  c #F5A634",
"u  c #F5A636",
"i  c #F5A736",
"p  c #F5A738",
"a  c #F6AA3E",
"s  c #F6AB40",
"d  c #F6AB41",
"f  c #F6AC42",
"g  c #F6AC43",
"h  c #F6AC44",
"j  c #F6AD45",
"k  c #F6AE47",
"l  c #F6AF4A",
"z  c #F6AF4B",
"x  c #F7B454",
"c  c #F7B557",
"v  c #F7B558",
"b  c #F7B659",
"n  c #F7B85E",
"m  c #F7B85F",
"M  c #F7BA61",
"N  c #F8BC68",
"B  c #F8BD69",
"V  c #F8BE6C",
"C  c #F8BF6D",
"Z  c #F8BF6E",
"A  c #F8C070",
"S  c #F8C275",
"D  c #F9C376",
"F  c #F9C377",
"G  c #F9C57B",
"H  c #F9C57D",
"J  c #F9C780",
"K  c #F9C985",
"L  c #F9C986",
"P  c #F9CB88",
"I  c #F9CC8C",
"U  c #FACC8C",
"Y  c #FAD39B",
"T  c #FAD59F",
"R  c #FBDBAE",
"E  c #FCE2BE",
"W  c #FCE3C1",
"Q  c #FCE4C1",
"!  c #FCE4C3",
"~  c #FCE5C5",
"^  c #FDE8CC",
"/  c #FDECD4",
"(  c #FDEED9",
")  c #FDEFDB",
"_  c #FDF0DD",
"`  c #FEF1E0",
"'  c #FEF4E6",
"]  c #FEF5E9",
"[  c #FEF8F0",
"{  c #FEFAF4",
"}  c #FFFCF8",
"|  c #FFFEFC",
" . c white",
/* pixels */
"              9 9               ",
"          9 , & $ , 9           ",
"      9 , & k V V k & , 9       ",
"    9 & u ~ [  . .{ E d & 9     ",
"    , r } ! 1 9 & , u V u ,     ",
"  9 & ^  .S o d J A 4 # K 9 9   ",
"  , k [ x N 2 R  .] 9 # _ l ,   ",
"9 # S ` H N J z , & & T  .V $ 9 ",
"9 % J U V M S U G b $ b  .N & 9 ",
"9 - l ] Y X a  . .W + 0  .k ,   ",
"  9 & ' K X , w w # o I ) & 9   ",
"  9 , f P M n b x A !  .u , 9   ",
"    9 % f )  . . . ./ p & 9     ",
"      9 - & f V V d - & 9       ",
"        9 9 , # & , 9 9         ",
"            9 9 9 9             "
};
