/* XPM */
static char *_ba52cdd92fa46b1f3b129402899881f[] = {
/* columns rows colors chars-per-pixel */
"16 16 96 2 ",
"   c #78154E",
".  c #830F51",
"X  c #850C50",
"o  c #A71167",
"O  c #B12173",
"+  c #BA2379",
"@  c #BF237C",
"#  c #C51E7D",
"$  c #F81998",
"%  c #FB1B9B",
"&  c #FC1C9C",
"*  c #FC1E9D",
"=  c #E22A93",
"-  c #F12499",
";  c #FA239D",
":  c #F42E9D",
">  c #F52E9D",
",  c #F42F9D",
"<  c #F52E9E",
"1  c #F72E9F",
"2  c #F4309C",
"3  c #F4309D",
"4  c #F4329C",
"5  c #F6309E",
"6  c #FB26A0",
"7  c #FB27A0",
"8  c #FC27A1",
"9  c #F72EA0",
"0  c #F92AA0",
"q  c #FB2AA2",
"w  c #FB2BA2",
"e  c #FC28A1",
"r  c #FC29A2",
"t  c #FC2BA2",
"y  c #F82CA1",
"u  c #F82DA1",
"i  c #FA2DA1",
"p  c #F92EA1",
"a  c #FB2CA2",
"s  c #FB2DA2",
"d  c #FB2CA3",
"f  c #FA2EA2",
"g  c #FA2FA2",
"h  c #FB2EA3",
"j  c #FB2FA3",
"k  c #FA2EA4",
"l  c #FC2EA4",
"z  c #FD2EA4",
"x  c #FD2FA5",
"c  c #FD2FA8",
"v  c #F834A3",
"b  c #F934A3",
"n  c #FA35A4",
"m  c #F939A4",
"M  c #FF30A9",
"N  c #FF30AA",
"B  c #F840A8",
"V  c #F941A9",
"C  c #F846AA",
"Z  c #F847AC",
"A  c #F652AE",
"S  c #E365AD",
"D  c #F763B7",
"F  c #F675BD",
"G  c #F37ABD",
"H  c #F778BD",
"J  c #F87BC2",
"K  c #F87FC3",
"L  c #F78CC8",
"P  c #F491C7",
"I  c #F49ECD",
"U  c #F999CF",
"Y  c #FF91D0",
"T  c #F3A6CF",
"R  c #F6AAD4",
"E  c #F9BFE0",
"W  c #F6C1DC",
"Q  c #FFC6E6",
"!  c #F9D5E8",
"~  c #FAD5E9",
"^  c #FBD4EA",
"/  c #F6DBE9",
"(  c #F9D9EB",
")  c #FADCEF",
"_  c #F8E1ED",
"`  c #FBE2F0",
"'  c #F9E4F0",
"]  c #F8E7F0",
"[  c #FAE7F1",
"{  c #FDE9F4",
"}  c #F8F0F4",
"|  c #F9F1F4",
" . c #FCF8FB",
".. c #FAFCFC",
"X. c #FDFFFF",
"o. c None",
/* pixels */
"o.o.o.o.o.o.o.o.o.o.o.o.o.o.o.o.",
"o.o.o.o.o.o.o.5 5 o.o.o.o.o.o.o.",
"o.o.o.o.4 h h w w h h 2 o.o.o.o.",
"o.o.o.5 h w * B C h h h > o.o.o.",
"o.o.2 h w V F R I P & h l > o.o.",
"o.o.h h w b W X.] ~ B 7 l h o.o.",
"o.o.h h h % U ( $ W } 0 h l o.o.",
"o.> h h h ; ~ [ L ^ Q #   k > o.",
"o.> h h 7 b ..J K  .Y o O c > o.",
"o.o.h 8 A / X.D h ` ) X @ c o.o.",
"o.o.h w n G _ ' } { S . = l o.o.",
"o.o.> z 8 Z G T V k - + h > o.o.",
"o.o.o.> h w ; m w h l N 9 o.o.o.",
"o.o.o.o.: h j k h k h > o.o.o.o.",
"o.o.o.o.o.o.o.> > o.o.o.o.o.o.o.",
"o.o.o.o.o.o.o.o.o.o.o.o.o.o.o.o."
};
