/* XPM */
static char *c762b6c8c78b4d70efb98be3bf5d7deb[] = {
/* columns rows colors chars-per-pixel */
"64 64 159 2 ",
"   c #010001",
".  c #0E0309",
"X  c #13040C",
"o  c #1C0512",
"O  c #27071A",
"+  c #340922",
"@  c #390A25",
"#  c #3B0C2B",
"$  c #420C2B",
"%  c #480D2F",
"&  c #4E0F33",
"*  c #541037",
"=  c #581039",
"-  c #62123F",
";  c #621242",
":  c #72154A",
">  c #7A164F",
",  c #7F1753",
"<  c #861957",
"1  c #871959",
"2  c #8B195A",
"3  c #9A1C65",
"4  c #9E1D68",
"5  c #A61E6B",
"6  c #A91F6F",
"7  c #AB1F70",
"8  c #AC2070",
"9  c #B32175",
"0  c #B92277",
"q  c #B82278",
"w  c #C3247E",
"e  c #FE0E97",
"r  c #FD1796",
"t  c #FE149A",
"y  c #FD1D9D",
"u  c #C22480",
"i  c #CE2687",
"p  c #D02687",
"a  c #D7278C",
"s  c #DD2B8D",
"d  c #DF2992",
"f  c #E32F8E",
"g  c #E2328B",
"h  c #E8368F",
"j  c #E43A8A",
"k  c #E52C93",
"l  c #EA2F93",
"z  c #E72B98",
"x  c #EC2B99",
"c  c #FC229E",
"v  c #F52F9D",
"b  c #FA2B9E",
"n  c #E73091",
"m  c #EC3193",
"M  c #ED3B91",
"N  c #F23597",
"B  c #F23995",
"V  c #F5329B",
"C  c #F8319E",
"Z  c #F6389A",
"A  c #EC2EA1",
"S  c #FD25A1",
"D  c #F52DA1",
"F  c #FB2EA3",
"G  c #FF25A9",
"H  c #FF2EA9",
"J  c #F737A1",
"K  c #F931A1",
"L  c #F73CA4",
"P  c #F938A3",
"I  c #FF31AC",
"U  c #FF32B1",
"Y  c #FF35BB",
"T  c #E44186",
"R  c #E94189",
"E  c #F8409B",
"W  c #F54C9F",
"Q  c #F643A6",
"!  c #F449A5",
"~  c #F44EAA",
"^  c #F554A4",
"/  c #F158A7",
"(  c #F452AC",
")  c #F359AC",
"_  c #F35DB0",
"`  c #EE65AF",
"'  c #ED69AE",
"]  c #F068AF",
"[  c #F271AE",
"{  c #F07FAF",
"}  c #EE6EB2",
"|  c #F263B2",
" . c #F16BB3",
".. c #EF73B4",
"X. c #EF7BBA",
"o. c #F173B7",
"O. c #F077B8",
"+. c #F07CBA",
"@. c #FF37C2",
"#. c #E882B6",
"$. c #EF84BD",
"%. c #E78DBC",
"&. c #EA8BBC",
"*. c #F08DB6",
"=. c #F283BE",
"-. c #E990B3",
";. c #EC93BF",
":. c #E598BB",
">. c #EB9BBD",
",. c #EE85C0",
"<. c #EE8DC1",
"1. c #F08BC1",
"2. c #ED93C3",
"3. c #EC9BC4",
"4. c #EE9DC9",
"5. c #F192C1",
"6. c #E6ABC1",
"7. c #E9A8C6",
"8. c #ECA4CA",
"9. c #ECAACD",
"0. c #EDB2C2",
"q. c #EAB3CE",
"w. c #E6BDCE",
"e. c #EFB3D2",
"r. c #ECBBD4",
"t. c #F1B1D2",
"y. c #E5C8C9",
"u. c #EBC3D7",
"i. c #EDC5D9",
"p. c #EBCEDA",
"a. c #F0C2DA",
"s. c #F1C9DE",
"d. c #EBD2D3",
"f. c #EDD3DD",
"g. c #E4DBDC",
"h. c #ECD5E0",
"j. c #ECDBE3",
"k. c #F2D4E3",
"l. c #F1DDE5",
"z. c #EBE2E5",
"x. c #E4EAE5",
"c. c #ECEAE5",
"v. c #EDEBEB",
"b. c #F3E1E3",
"n. c #F0E4E9",
"m. c #E2F2E3",
"M. c #ECF3EC",
"N. c #E5FFEF",
"B. c #F1F2EF",
"V. c #EEF5F0",
"C. c #EEFAF2",
"Z. c #EEFFF8",
"A. c #F2F6F3",
"S. c #F8F4F5",
"D. c #F1FCF5",
"F. c #F8F8F7",
"G. c #F5FFFC",
"H. c #FEFFFF",
"J. c None",
/* pixels */
"J.J.J.J.J.J.J.J.J.J.J.J.J.J.J.J.J.J.J.J.J.J.J.J.J.J.J.J.J.J.J.J.J.J.J.J.J.J.J.J.J.J.J.J.J.J.J.J.J.J.J.J.J.J.J.J.J.J.J.J.J.J.J.J.",
"J.J.J.J.J.J.J.J.J.J.J.J.J.J.J.J.J.J.J.J.J.J.J.J.J.J.J.J.J.J.J.J.J.J.J.J.J.J.J.J.J.J.J.J.J.J.J.J.J.J.J.J.J.J.J.J.J.J.J.J.J.J.J.J.",
"J.J.J.J.J.J.J.J.J.J.J.J.J.J.J.J.J.J.J.J.J.J.J.J.J.J.J.J.J.J.J.J.J.J.J.J.J.J.J.J.J.J.J.J.J.J.J.J.J.J.J.J.J.J.J.J.J.J.J.J.J.J.J.J.",
"J.J.J.J.J.J.J.J.J.J.J.J.J.J.J.J.J.J.J.J.J.J.J.J.J.J.J.J.J.J.J.J.J.J.J.J.J.J.J.J.J.J.J.J.J.J.J.J.J.J.J.J.J.J.J.J.J.J.J.J.J.J.J.J.",
"J.J.J.J.J.J.J.J.J.J.J.J.J.J.J.J.J.J.J.J.J.J.J.J.J.J.R M B Z V V C Z V Z M j J.J.J.J.J.J.J.J.J.J.J.J.J.J.J.J.J.J.J.J.J.J.J.J.J.J.",
"J.J.J.J.J.J.J.J.J.J.J.J.J.J.J.J.J.J.J.J.J.J.J.M Z K F F H F F F F S F F H F K V B J.J.J.J.J.J.J.J.J.J.J.J.J.J.J.J.J.J.J.J.J.J.J.",
"J.J.J.J.J.J.J.J.J.J.J.J.J.J.J.J.J.J.J.J.R Z K F F F F F F F F F F F F F F F F F F F C h J.J.J.J.J.J.J.J.J.J.J.J.J.J.J.J.J.J.J.J.",
"J.J.J.J.J.J.J.J.J.J.J.J.J.J.J.J.J.J.R C F F F F F F F F F F F F F F F F F F F F F F F F C h J.J.J.J.J.J.J.J.J.J.J.J.J.J.J.J.J.J.",
"J.J.J.J.J.J.J.J.J.J.J.J.J.J.J.J.J.Z F F F F F F F F F F F F F F F F F F F F F F F F F F F F C J.J.J.J.J.J.J.J.J.J.J.J.J.J.J.J.J.",
"J.J.J.J.J.J.J.J.J.J.J.J.J.J.J.R K F F F F F F F K F F F F F F F F F F F F F F F F F F F F F F F m J.J.J.J.J.J.J.J.J.J.J.J.J.J.J.",
"J.J.J.J.J.J.J.J.J.J.J.J.J.J.B F F F F F F F F F F F F F F F F F F F F F F F F F K D F F F F F F F N J.J.J.J.J.J.J.J.J.J.J.J.J.J.",
"J.J.J.J.J.J.J.J.J.J.J.J.J.Z F F F F F F F F F F F F F F F F F F F F F F F F F F F F F F F F F F F F C J.J.J.J.J.J.J.J.J.J.J.J.J.",
"J.J.J.J.J.J.J.J.J.J.J.J.Z H F F F F F F F F F F F F F F F F F S F F F F F F F F F F F F F F F F F F F C J.J.J.J.J.J.J.J.J.J.J.J.",
"J.J.J.J.J.J.J.J.J.J.J.Z H F F F F F F F K F F F F F F F K S P ! b c F F F F F F F F F F F F F F F F F F C J.J.J.J.J.J.J.J.J.J.J.",
"J.J.J.J.J.J.J.J.J.J.B F F F F F F F F F F F F F F F F F F c  .m.p.%.F F b y c F F F F F F F F F F F F F F V J.J.J.J.J.J.J.J.J.J.",
"J.J.J.J.J.J.J.J.J.h F F F b F F F F F F F F F F F F F F F c 4.G.G.q.c S :.7.} L F F F F F F F F F F F F F F n J.J.J.J.J.J.J.J.J.",
"J.J.J.J.J.J.J.J.J.F F F F F F F F F F F F F F S c S S K F b p.H.G.+.y P z.G.N.` S F F F F F F F F F F F F F F J.J.J.J.J.J.J.J.J.",
"J.J.J.J.J.J.J.J.Z F F F F F F F F F F F F F F #.&./ K c t Q M.H.V.( y ) D.H.v.L S F K F F F F F F F F F F F F C J.J.J.J.J.J.J.J.",
"J.J.J.J.J.J.J.j F F F F F F F F F F F F F F C g.G.C.j.e.+.5.G.H.h.c t $.G.H.u.c F F F F F F F F F F F F F F F F f J.J.J.J.J.J.J.",
"J.J.J.J.J.J.J.C F F F F F F F F F F F F F S ) C.H.H.H.G.G.F.H.H.k. .L r.H.G.5.y F F F F F F P F F F F F F F F F K J.J.J.J.J.J.J.",
"J.J.J.J.J.J.j F K F F F F F F F F F F F F S / y.c.G.H.H.H.H.H.H.H.G.B.F.H.G.| r S F F F F F F F F F F F F F F F F f J.J.J.J.J.J.",
"J.J.J.J.J.J.C F F F F F F F F F F F F F F F F b Z *.A.H.H.H.H.H.H.H.H.H.H.H.l.>.! y H K F F F F F F F F F F K F F v J.J.J.J.J.J.",
"J.J.J.J.J.J.F F F F F F F F F F F F F F F F F F S y i.H.H.H.H.F.G.G.H.H.H.H.H.G.M.;.b c F F F F F F F F F F F F F F J.J.J.J.J.J.",
"J.J.J.J.J.N F F F F F D F F F F F F F F F F F F F F h.H.H.H.H.a.( $.r.v.G.H.H.H.H.G.w.K S F F F F F F F F F F F F F m J.J.J.J.J.",
"J.J.J.J.J.Z F F F F F F F K F F F F F F F F F F c ~ V.H.H.H.G.,.t y c ! 4.C.H.H.H.H.G.7.c F F F F F F F F F F F F F v J.J.J.J.J.",
"J.J.J.J.J.K F F F F F F F F F F F F F F F F F F c X.G.H.H.H.D._ c K F S y  .A.H.H.H.H.V.~ S F F F F F F F F F F F F K J.J.J.J.J.",
"J.J.J.J.g F F F F F F F F F F F F F F F F F F F c 9.G.H.H.H.z.P S F F F F y e.G.H.H.H.D...y F F F H F F F F F F F F F f J.J.J.J.",
"J.J.J.J.m F F F F F F F F F F F F F D F F F F F K h.H.H.H.G.r.c F F F F F y 8.H.H.H.H.G.X.c F F H k x U F F F F F F H m J.J.J.J.",
"J.J.J.J.N F F F F F F F K F F F F F F F F F F S ~ V.H.H.H.G.=.e S F F F y F j.H.H.H.H.D.| S F v $ . * q x F F F F F F N J.J.J.J.",
"J.J.J.J.v F F F F F F F F F F F F F F F F F F y X.G.H.H.H.H.s.=.) L K K ~ r.F.H.H.H.H.j.K F U > & 2 : @ < U F F F F F v J.J.J.J.",
"J.J.J.J.v F F F F F F F F F F F F F F F F F F c 9.G.H.H.H.H.H.G.D.n.j.l.A.G.H.H.H.H.Z.X.c F U ; = : w ; : U F F F F F C J.J.J.J.",
"J.J.J.J.b F F F F F F F F F F F F F F F F F F v f.G.H.H.H.G.G.H.H.H.H.H.H.H.H.H.F.V.;.c F F H d o   o . a H F F F F F b J.J.J.J.",
"J.J.J.J.v F F F F F F F F F F F F F F F F F S ~ V.H.H.H.G.t.1.u.v.G.G.H.H.H.H.H.n.^ y F F H u * z 3 > p U F F F F F F v J.J.J.J.",
"J.J.J.J.C F F F F F F F F K F F F F F F F F y O.G.H.H.H.D._ e b L ..r.C.H.H.H.H.F.r.P S F U 9 X F Y Y U K F F F F F F b J.J.J.J.",
"J.J.J.J.v F F F F F F F F F F F F F F F F F c 9.G.H.H.H.z.P S F F y c | n.G.H.H.H.G.u.F F U :   X ; 5 v F F F F F F F v J.J.J.J.",
"J.J.J.J.N F F F F F F F F F F F F F F H F F K h.H.H.H.H.r.S F F F F F y ! v.H.H.H.H.Z.O.y F v i 1 +   a H F F F F F F m J.J.J.J.",
"J.J.J.J.m F F F F F F F F F F F F F F Z c t ~ C.H.H.H.G.1.y F F F F F F y 8.H.H.H.H.G.q.c U 9 - 2 D D D F F F F F F F m J.J.J.J.",
"J.J.J.J.f F F F F F F F F F F F F c ! g.u.1.s.F.H.H.H.D._ c F F F F F F y 4.G.H.H.H.H.r.G 6   # . O D H F F F F F F F s J.J.J.J.",
"J.J.J.J.J.K F F F F K F F F F F F c 2.G.H.G.H.H.H.H.H.n.F y S S F F F y F h.H.H.H.H.G.8.G + 2 @.F X 5 I F F F F F F F J.J.J.J.J.",
"J.J.J.J.J.v F F F F F F F F F F S L x.G.H.H.H.H.H.H.H.S.r.,._ Q K F K ~ r.G.H.H.H.H.G...G $ % A z X q U F F F F F F C J.J.J.J.J.",
"J.J.J.J.J.m H F F F F F F F F F H ! 6.d.M.F.G.H.H.H.H.H.H.G.C.v.h.f.j.V.G.H.H.H.H.H.c.L H d X     * H F K F F F F F m J.J.J.J.J.",
"J.J.J.J.J.J.F F F F F F F F F F F F y v ^ #.0.b.H.H.H.H.H.H.H.H.H.H.H.H.H.H.H.H.H.G.5.y F u d 7 q F F F F F F F F F J.J.J.J.J.J.",
"J.J.J.J.J.J.v F F F F F F F F F F F F F S c r [ G.H.S.l.C.H.H.H.H.H.H.H.H.H.H.H.G.r.D I :   F 4 < U F F F F F F F C J.J.J.J.J.J.",
"J.J.J.J.J.J.n F F F F F F F K F F F F F F b y 3.G.G.q.c ( k.H.H.G.D.G.G.G.G.Z.v.3.D G v X i Y 7   k H F F F F F H f J.J.J.J.J.J.",
"J.J.J.J.J.J.J.F F F F F F F F F F F F F F F b i.H.G.X.y b f.H.G.=._ =.5.2.<...Q y F F D . 2 A 0 . x F F F F F F F J.J.J.J.J.J.J.",
"J.J.J.J.J.J.J.f F F F F F F F F F F F F F S Q v.H.C.( y ( V.H.v.P y c y y c y F F F F I 4       , U F F F F F F f J.J.J.J.J.J.J.",
"J.J.J.J.J.J.J.J.C F F F F F F F F F F F K S ' N.G.h.K y $.G.H.i.c F F F F F F F F F D F U k 7 w H F F K F F F C J.J.J.J.J.J.J.J.",
"J.J.J.J.J.J.J.J.J.F F F F K F F F F F F F S L  .8.%.S c w.G.G.2.c F F F F F F F F F F F F F U H F F F F F F F J.J.J.J.J.J.J.J.J.",
"J.J.J.J.J.J.J.J.J.n F F F F F F F F F F F K F S y F F b -.d.m.] c F F F F F F F F F F K F F F F F F F F F F n J.J.J.J.J.J.J.J.J.",
"J.J.J.J.J.J.J.J.J.J.v F F F F F F F F F F F F F F F F F c b W J F F F F F F F F F F F F F F F F F F F F F v J.J.J.J.J.J.J.J.J.J.",
"J.J.J.J.J.J.J.J.J.J.J.v F F F F F F F F F F F F F F F F F F S F F F F F F F F F F F F F F F F F F F K F C J.J.J.J.J.J.J.J.J.J.J.",
"J.J.J.J.J.J.J.J.J.J.J.J.K F F F F F F F F F F F F F F F F F F F F F F K F F F F F F F F F F F F F F F C J.J.J.J.J.J.J.J.J.J.J.J.",
"J.J.J.J.J.J.J.J.J.J.J.J.J.v F F F F F F F F F F F F F F F F D F F F F F F F F F F F F F F F F F F F C J.J.J.J.J.J.J.J.J.J.J.J.J.",
"J.J.J.J.J.J.J.J.J.J.J.J.J.J.V F F F F F F F F F F F F F F F F F F F F F F F F F F F F F F F F F F v J.J.J.J.J.J.J.J.J.J.J.J.J.J.",
"J.J.J.J.J.J.J.J.J.J.J.J.J.J.J.l F F F F F F F F F F F F F F F F F F F F F F F F F F F F F F F F x J.J.J.J.J.J.J.J.J.J.J.J.J.J.J.",
"J.J.J.J.J.J.J.J.J.J.J.J.J.J.J.J.J.C F F F F F F F F F F F F F F F F F F F F F K F D F F F F C J.J.J.J.J.J.J.J.J.J.J.J.J.J.J.J.J.",
"J.J.J.J.J.J.J.J.J.J.J.J.J.J.J.J.J.J.m v F F F F F F F F F F F F F F F F F F F F F F F F K n J.J.J.J.J.J.J.J.J.J.J.J.J.J.J.J.J.J.",
"J.J.J.J.J.J.J.J.J.J.J.J.J.J.J.J.J.J.J.J.m b F F F F F F F F F F F F F F D F F F F F b m J.J.J.J.J.J.J.J.J.J.J.J.J.J.J.J.J.J.J.J.",
"J.J.J.J.J.J.J.J.J.J.J.J.J.J.J.J.J.J.J.J.J.J.J.m F F F F F F F F F F F F F F F D m J.J.J.J.J.J.J.J.J.J.J.J.J.J.J.J.J.J.J.J.J.J.J.",
"J.J.J.J.J.J.J.J.J.J.J.J.J.J.J.J.J.J.J.J.J.J.J.J.J.J.f m N v v F v C v N m f J.J.J.J.J.J.J.J.J.J.J.J.J.J.J.J.J.J.J.J.J.J.J.J.J.J.",
"J.J.J.J.J.J.J.J.J.J.J.J.J.J.J.J.J.J.J.J.J.J.J.J.J.J.J.J.J.J.J.J.J.J.J.J.J.J.J.J.J.J.J.J.J.J.J.J.J.J.J.J.J.J.J.J.J.J.J.J.J.J.J.J.",
"J.J.J.J.J.J.J.J.J.J.J.J.J.J.J.J.J.J.J.J.J.J.J.J.J.J.J.J.J.J.J.J.J.J.J.J.J.J.J.J.J.J.J.J.J.J.J.J.J.J.J.J.J.J.J.J.J.J.J.J.J.J.J.J.",
"J.J.J.J.J.J.J.J.J.J.J.J.J.J.J.J.J.J.J.J.J.J.J.J.J.J.J.J.J.J.J.J.J.J.J.J.J.J.J.J.J.J.J.J.J.J.J.J.J.J.J.J.J.J.J.J.J.J.J.J.J.J.J.J.",
"J.J.J.J.J.J.J.J.J.J.J.J.J.J.J.J.J.J.J.J.J.J.J.J.J.J.J.J.J.J.J.J.J.J.J.J.J.J.J.J.J.J.J.J.J.J.J.J.J.J.J.J.J.J.J.J.J.J.J.J.J.J.J.J."
};
