/* XPM */
static char *_14510238e904542cb9f14581415b51eDnBVTVpHlBaa8R5m[] = {
/* columns rows colors chars-per-pixel */
"64 64 122 2 ",
"   c None",
".  c #F28D01",
"X  c #F39106",
"o  c #F3930B",
"O  c #F49713",
"+  c #F49816",
"@  c #F49A1A",
"#  c #F49D22",
"$  c #F5A027",
"%  c #F5A22C",
"&  c #F5A533",
"*  c #F6A739",
"=  c #F6A93B",
"-  c #F6AC44",
";  c #F6AF49",
":  c #F6B14D",
">  c #F7B353",
",  c #F7B65B",
"<  c #F7B85F",
"1  c #F7BA62",
"2  c #F8BB66",
"3  c #F8BE6B",
"4  c #F8C274",
"5  c #F9C57C",
"6  c #F9C781",
"7  c #F9C984",
"8  c #F9CC8B",
"9  c #FACE91",
"0  c #FAD196",
"q  c #FAD39B",
"w  c #FBD6A3",
"e  c #FBD8A5",
"r  c #FBD8A6",
"t  c #FBD9A8",
"y  c #FBD9A9",
"u  c #FBDAAA",
"i  c #FBDAAB",
"p  c #FBDBAE",
"a  c #FBDCAF",
"s  c #FBDAAB",
"d  c #FBDCB0",
"f  c #FBDDB1",
"g  c #FBDDB3",
"h  c #FBDEB3",
"j  c #FBDEB5",
"k  c #FCDFB7",
"l  c #FCDEB3",
"z  c #FBE0B8",
"x  c #FBE0B9",
"c  c #FCE0B9",
"v  c #FCE1BA",
"b  c #FCE2BC",
"n  c #FCE1BB",
"m  c #FCE3C0",
"M  c #FCE3C1",
"N  c #FCE4C1",
"B  c #FCE4C2",
"V  c #FCE6C6",
"C  c #FCE3C0",
"Z  c #FCE8CA",
"A  c #FDE8CA",
"S  c #FCE8CB",
"D  c #FDE8CB",
"F  c #FCE8CC",
"G  c #FCE9CC",
"H  c #FDE9CC",
"J  c #FCE9CD",
"K  c #FDE9CE",
"L  c #FDEAD0",
"P  c #FDEBD2",
"I  c #FDECD3",
"U  c #FDECD4",
"Y  c #FDECD5",
"T  c #FDEDD5",
"R  c #FDECD3",
"E  c #FDEED9",
"W  c #FDEEDA",
"Q  c #FDEFDC",
"!  c #FDEFDA",
"~  c #FDF0DD",
"^  c #FDF1DF",
"/  c #FEF0DF",
"(  c #FEF1DF",
")  c #FDF0DC",
"_  c #FDF1E0",
"`  c #FEF1E0",
"'  c #FEF2E1",
"]  c #FEF2E2",
"[  c #FEF3E3",
"{  c #FEF3E4",
"}  c #FEF3E5",
"|  c #FEF4E7",
" . c #FEF5E8",
".. c #FEF6E9",
"X. c #FEF6EA",
"o. c #FEF6EB",
"O. c #FEF7EC",
"+. c #FEF7ED",
"@. c #FEF5E8",
"#. c #FEF8EE",
"$. c #FEF8EF",
"%. c #FEF8EF",
"&. c #FEF8F0",
"*. c #FEF9F1",
"=. c #FEF9F2",
"-. c #FEF9F3",
";. c #FEFAF3",
":. c #FFFBF5",
">. c #FEFBF6",
",. c #FFFBF6",
"<. c #FFFBF7",
"1. c #FFFCF7",
"2. c #FEFAF4",
"3. c #FFFCF8",
"4. c #FFFCF9",
"5. c #FFFDFA",
"6. c #FFFDFB",
"7. c #FFFDFC",
"8. c #FFFEFD",
"9. c #FFFFFE",
"0. c white",
"q. c #FFFFFF",
/* pixels */
"                                                                                                                                ",
"                                                    @ @ @ @ @ @ @ @ @ @ @ @                                                     ",
"                                            @ @ @ @ @ @ @ @ @ @ @ @ @ @ @ @ @ @ @ @                                             ",
"                                      @ @ @ @ @ @ @ @ @ @ @ @ @ @ @ @ @ @ @ @ @ @ @ @ @ @                                       ",
"                                  @ @ @ @ @ @ @ @ @ @ @ @ @ @ @ @ @ @ @ @ @ @ @ @ @ @ @ @ @ @                                   ",
"                                @ @ @ @ @ @ @ @ @ @ @ @ @ @ @ @ @ @ @ @ @ @ @ @ @ @ @ @ @ @ @ @                                 ",
"                            @ @ @ @ @ @ @ @ @ @ @ @ @ @ @ @ @ @ @ @ @ @ @ @ @ @ @ @ @ @ @ @ @ @ @ @                             ",
"                          @ @ @ @ @ @ @ @ @ @ @ @ @ @ @ @ @ @ @ @ @ @ @ @ @ @ @ @ @ @ @ @ @ @ @ @ @ @                           ",
"                        @ @ @ @ @ @ @ @ @ @ @ @ @ @ O O o X X X X X X o O O @ @ @ @ @ @ @ @ @ @ @ @ @ @                         ",
"                    @ @ @ @ @ @ @ @ @ @ @ @ @ @ o o @ = 1 7 0 q w 0 6 1 = @ X o @ @ @ @ @ @ @ @ @ @ @ @ @ @                     ",
"                  @ @ @ @ @ @ @ @ @ @ @ @ O X @ 1 i ' 0.0.0.0.0.0.0.0.0.0.' i , # X O @ @ @ @ @ @ @ @ @ @ @ @                   ",
"                  @ @ @ @ @ @ @ @ @ @ O X $ 7 | 0.0.0.0.0.0.0.0.0.0.0.0.0.0.0.0.} 7 # X @ @ @ @ @ @ @ @ @ @ @                   ",
"                @ @ @ @ @ @ @ @ @ @ o + 5 +.0.0.0.0.0.0.0.0.0.0.0.0.0.0.0.0.0.0.0.0.+.5 O X @ @ @ @ @ @ @ @ @ @                 ",
"              @ @ @ @ @ @ @ @ @ @ X = J 0.0.0.0.0.0.0.0.0.0.0.0.0.0.0.0.0.0.0.0.0.0.0.0.F = X @ @ @ @ @ @ @ @ @ @               ",
"            @ @ @ @ @ @ @ @ @ @ X 1 ;.0.0.0.0.0.4.;.;.4.1.1.1.4.1.;.4.1.4.;.4.4.0.0.0.0.0.4.1 X @ @ @ @ @ @ @ @ @ @             ",
"            @ @ @ @ @ @ @ @ @ X 5 0.0.0.0.0.N & % & & & & & & & & & & & & & & & * - 1 8 V 0.0.5 X @ @ @ @ @ @ @ @ @             ",
"          @ @ @ @ @ @ @ @ @ X 5 0.0.0.0.0.0.; . O O O O O O O O O O O O O O O O O o o X o * q 0.6 X O @ @ @ @ @ @ @ @           ",
"        @ @ @ @ @ @ @ @ @ X 2 0.0.0.0.0.0.;.% + @ @ @ @ @ @ @ @ @ @ @ @ @ @ @ @ @ @ @ @ @ o X > 0.3 X @ @ @ @ @ @ @ @ @         ",
"        @ @ @ @ @ @ @ @ o = 4.0.0.0.0.0.0.U + + @ @ @ @ @ @ @ @ @ @ @ @ @ @ @ @ @ @ @ @ @ @ @ X : 0.= O @ @ @ @ @ @ @ @         ",
"      @ @ @ @ @ @ @ @ + O U 0.0.0.0.0.0.0.i X @ @ @ @ @ @ @ @ @ @ @ @ @ @ @ @ @ @ @ @ @ @ @ @ @ . e ~ O @ @ @ @ @ @ @ @ @       ",
"      @ @ @ @ @ @ @ @ X 6 0.0.0.0.0.0.0.0.5 X @ @ @ @ @ @ @ O o o o o o X o O @ @ @ @ @ @ @ @ @ o = 0.6 X @ @ @ @ @ @ @ @       ",
"      @ @ @ @ @ @ @ O $ ;.0.0.0.0.0.0.0.0.> o @ @ @ @ @ @ O # > , , , , , > * o O @ @ @ @ @ @ @ @ @ +.;.$ O @ @ @ @ @ @ @       ",
"    @ @ @ @ @ @ @ @ X 9 0.0.0.0.0.0.0.0.;.% O @ @ @ @ @ @ + M 0.0.0.0.0.0.0.4.f @ O @ @ @ @ @ @ @ O I 0.8 X @ @ @ @ @ @ @ @     ",
"    @ @ @ @ @ @ @ + #  .0.0.0.&.Q ~ } 0.U O @ @ @ @ @ @ O * 0.0.0.0.0.0.0.0.0.0.6 o @ @ @ @ @ @ O @ E 0. .# O @ @ @ @ @ @ @     ",
"    @ @ @ @ @ @ @ o 2 0.0.0.0.: o @ @ +.j X @ @ @ @ @ @ o , 0.0.0.0.0.0.0.0.0.0.q X @ @ @ @ @ @ O $ &.0.0.1 X @ @ @ @ @ @ @     ",
"    @ @ @ @ @ @ @ X f 0.0.0.+.# O O # 4.6 X @ @ @ @ @ @ X 7 0.0.0.0.0.0.0.0.0.0.4 o @ @ @ @ @ @ X , 0.0.0.f o @ @ @ @ @ @ @     ",
"  @ @ @ @ @ @ @ @ @  .0.0.0.V O @ o : 0.: . O O O O O O . z 0.0.0.0.0.0.0.0.0.N @ O @ @ @ @ @ O X b 0.0.0.| @ @ @ @ @ @ @ @ @   ",
"  @ @ @ @ @ @ @ o - 0.0.0.0.w X @ X 4 0.e $ $ % % % % $ > #.} | | | | | ~ N 5 O O @ @ @ @ @ @ X 2 0.0.0.0.0.- o @ @ @ @ @ @ @   ",
"  @ @ @ @ @ @ @ o 3 0.0.0.0.3 . o . q 0.0.0.0.0.0.0.0.&.&.- @ # @ # # # @ o X @ @ @ @ @ @ O . : ;.0.0.0.0.0.2 o @ @ @ @ @ @ @   ",
"  @ @ @ @ @ @ @ X 7 0.0.0.0.8 - : ; ' Z > , , , , , 2 0.z X @ O @ @ O O @ @ @ @ @ @ @ @ O X 4 4.0.0.0.0.0.0.6 X @ @ @ @ @ @ @   ",
"  @ @ @ @ @ @ @ X q 0.0.0.0.0.0.0.0.0.& X o o o o X @ 0.7 X @ @ @ @ @ @ @ @ @ @ @ @ @ O * J 0.0.0.0.0.0.0.0.q X @ @ @ @ @ @ @   ",
"  @ @ @ @ @ @ @ X y 0.0.0.M = - = p  .o o O O O O . > 0., o @ @ @ @ @ @ @ @ @ @ @ @ @ @ @ 5 ;.0.0.0.0.0.0.0.w o @ @ @ @ @ @ @   ",
"  @ @ @ @ @ @ @ X e 0.0.7.5 . O . 9 4.1 * = = = = % w 7.& O @ @ @ @ @ @ @ @ @ @ @ @ @ @ @ X - #.0.0.0.0.0.0.w X @ @ @ @ @ @ @   ",
"  @ @ @ @ @ @ @ X q 0.0.0.: o @ o M 0.0.0.0.0.0.0.0.7.o.O X o o o o o X o X O @ @ @ @ @ @ @ . 1 0.0.0.0.0.0.q X @ @ @ @ @ @ @   ",
"  @ @ @ @ @ @ @ X 8 0.0.;.% O + # +.| 1 , , < < < < > V V d j k c k k k p 7 & o @ @ @ @ @ @ @ o Z 0.0.0.0.0.8 X @ @ @ @ @ @ @   ",
"  @ @ @ @ @ @ @ X 3 0.0.K O + o = 0.6 . o X o o o X . 7 0.0.0.0.0.0.0.0.0.0.#.= O @ @ @ @ @ @ X 6 0.0.0.0.0.3 X @ @ @ @ @ @ @   ",
"  @ @ @ @ @ @ @ O - 0.0.b O @ o 3 0.> o @ @ @ @ @ @ o k 0.0.0.0.0.0.0.0.0.0.0.q X @ @ @ @ @ @ o , 0.0.0.0.0.- o @ @ @ @ @ @ @   ",
"  @ @ @ @ @ @ @ + # +.0.0.' ~ / 0.;.$ + @ @ @ @ @ + @ } 0.0.0.0.0.0.0.0.0.0.0.q X @ @ @ @ @ @ o > 0.0.0.0. .# @ @ @ @ @ @ @ @   ",
"    @ @ @ @ @ @ @ X k 0.0.0.0.0.0.Y + + @ @ @ @ @ O * 0.0.0.0.0.0.0.0.0.0.0.0.1 o @ @ @ @ @ @ o 2 0.0.0.0.j X @ @ @ @ @ @ @     ",
"    @ @ @ @ @ @ @ X 3 0.0.0.0.0.0.p X @ @ @ @ @ @ X 1 0.0.0.0.0.0.0.0.0.0.0.w o @ @ @ @ @ @ @ X 8 0.0.0.0.3 X @ @ @ @ @ @ @     ",
"    @ @ @ @ @ @ @ + # &.0.0.0.0.0.5 X @ @ @ @ @ @ + * S Q E Q E E E Q J i > o @ @ @ @ @ @ @ @ o J 0.0.0.&.# @ @ @ @ @ @ @ @     ",
"    @ @ @ @ @ @ @ @ X q 0.0.0.0.0.> o @ @ @ @ @ @ @ + O + + + @ @ O O O X o @ @ @ @ @ @ @ @ o : 0.0.0.0.0 X @ @ @ @ @ @ @ @     ",
"      @ @ @ @ @ @ @ + & 4.0.0.0.;.% + @ @ @ @ @ @ @ @ @ + + @ + O @ @ @ @ @ @ @ @ @ @ @ @ O O P 0.0.0.4.% O @ @ @ @ @ @ @       ",
"      @ @ @ @ @ @ @ @ . 8 0.0.0.U + + @ @ @ @ @ @ @ @ @ @ @ @ @ @ @ @ @ @ @ @ @ @ @ @ @ o o p 0.0.0.0.8 X @ @ @ @ @ @ @ @       ",
"      @ @ @ @ @ @ @ @ + + Q 0.0.p o @ @ @ @ @ @ @ @ @ @ @ @ @ @ @ @ @ @ @ @ @ @ @ @ O X % M 0.0.0.0.E @ O @ @ @ @ @ @ @ @       ",
"        @ @ @ @ @ @ @ @ o - 0.0.5 X @ @ @ @ @ @ @ @ @ @ @ @ @ @ @ @ @ @ @ @ + O X X # 6 &.0.0.0.0.0.- X @ @ @ @ @ @ @ @         ",
"        @ @ @ @ @ @ @ @ @ X 5 7., . . X X X X X X X X X X X X X X X X X X o + & 1 e &.0.0.0.0.0.0.4 X @ @ @ @ @ @ @ @ @         ",
"          @ @ @ @ @ @ @ @ @ X 0 | 7 8 8 8 8 8 8 8 8 8 8 8 8 8 7 8 7 8 0 e b E 4.0.0.0.0.0.0.0.0.8 X @ @ @ @ @ @ @ @ @           ",
"            @ @ @ @ @ @ @ @ @ X q 0.0.0.0.0.0.0.0.0.0.0.0.0.0.0.0.0.0.0.0.0.0.0.0.0.0.0.0.0.0.8 X @ @ @ @ @ @ @ @ @             ",
"            @ @ @ @ @ @ @ @ @ @ X 4 0.0.0.0.0.0.0.0.0.0.0.0.0.0.0.0.0.0.0.0.0.0.0.0.0.0.0.0.4 X @ @ @ @ @ @ @ @ @ @             ",
"              @ @ @ @ @ @ @ @ @ @ X : ~ 0.0.0.0.0.0.0.0.0.0.0.0.0.0.0.0.0.0.0.0.0.0.0.0.E : X @ @ @ @ @ @ @ @ @ @               ",
"                @ @ @ @ @ @ @ @ @ @ X @ 9 4.0.0.0.0.0.0.0.0.0.0.0.0.0.0.0.0.0.0.0.0.1.9 @ X @ @ @ @ @ @ @ @ @ @                 ",
"                @ @ @ @ @ @ @ @ @ @ @ O X * q &.0.0.0.0.0.0.0.0.0.0.0.0.0.0.0.0.#.q * X O @ @ @ @ @ @ @ @ @ @ @                 ",
"                  @ @ @ @ @ @ @ @ @ @ @ @ O X % 4 c #.0.0.0.0.0.0.0.0.0.0.#.c 4 $ X o @ @ @ @ @ @ @ @ @ @ @ @                   ",
"                    @ @ @ @ @ @ @ @ @ @ @ @ @ O X o $ : 4 0 i j l i 0 4 > $ o X O @ @ @ @ @ @ @ @ @ @ @ @ @                     ",
"                      @ @ @ @ @ @ @ @ @ @ @ @ @ @ @ O O X X X X X X X X o @ @ @ @ @ @ @ @ @ @ @ @ @ @ @ @                       ",
"                          @ @ @ @ @ @ @ @ @ @ @ @ @ @ @ @ @ @ @ @ @ @ @ @ @ @ @ @ @ @ @ @ @ @ @ @ @ @                           ",
"                            @ @ @ @ @ @ @ @ @ @ @ @ @ @ @ @ @ @ @ @ @ @ @ @ @ @ @ @ @ @ @ @ @ @ @ @                             ",
"                              @ @ @ @ @ @ @ @ @ @ @ @ @ @ @ @ @ @ @ @ @ @ @ @ @ @ @ @ @ @ @ @ @ @                               ",
"                                  @ @ @ @ @ @ @ @ @ @ @ @ @ @ @ @ @ @ @ @ @ @ @ @ @ @ @ @ @ @                                   ",
"                                      @ @ @ @ @ @ @ @ @ @ @ @ @ @ @ @ @ @ @ @ @ @ @ @ @ @                                       ",
"                                            @ @ @ @ @ @ @ @ @ @ @ @ @ @ @ @ @ @ @ @                                             ",
"                                                  @ @ @ @ @ @ @ @ @ @ @ @ @ @                                                   ",
"                                                                                                                                "
};
