/* XPM */
static char *ajonx_v9qwh[] = {
/* columns rows colors chars-per-pixel */
"32 32 223 2 ",
"   c None",
".  c #150013",
"X  c #2C001F",
"o  c #100029",
"O  c #160034",
"+  c #290025",
"@  c #2D0633",
"#  c #31003D",
"$  c #3A213D",
"%  c #460037",
"&  c #270047",
"*  c #3A0055",
"=  c #280055",
"-  c #5A004A",
";  c #42065A",
":  c #560058",
">  c #451958",
",  c #490042",
"<  c #6E0E55",
"1  c #4B3250",
"2  c #762E56",
"3  c #450764",
"4  c #5B0469",
"5  c #4E0076",
"6  c #760060",
"7  c #67166C",
"8  c #74007B",
"9  c #631C73",
"0  c #563264",
"q  c #7C2C7C",
"w  c #69357B",
"e  c #6D3066",
"r  c #544856",
"t  c #594762",
"y  c #5F5862",
"u  c #7C5F6F",
"i  c #754F76",
"p  c #624270",
"a  c #776775",
"s  c #727771",
"d  c #920B57",
"f  c #B20C5C",
"g  c #830263",
"h  c #9E0060",
"j  c #830575",
"k  c #BA0665",
"l  c #B51666",
"z  c #A2007F",
"x  c #AF1771",
"c  c #8D296D",
"v  c #97306C",
"b  c #A93C7C",
"n  c #B83473",
"m  c #A1287F",
"M  c #C30266",
"N  c #C91070",
"B  c #E9007C",
"V  c #8C4774",
"C  c #A24A7A",
"Z  c #7B8578",
"A  c #720999",
"S  c #752794",
"D  c #6F00A0",
"F  c #7B6E82",
"G  c #841B8E",
"H  c #A40986",
"J  c #B90A89",
"K  c #B51484",
"L  c #912E90",
"P  c #B23597",
"I  c #8C0EAD",
"U  c #BF00B2",
"Y  c #A300A6",
"T  c #B231A0",
"R  c #B231B2",
"E  c #C11E85",
"W  c #DA0199",
"Q  c #D81895",
"!  c #E90889",
"~  c #E3199C",
"^  c #DB338F",
"/  c #F1338E",
"(  c #CA02AB",
")  c #DC17A6",
"_  c #CA03B7",
"`  c #D110A5",
"'  c #C828A7",
"]  c #D427BC",
"[  c #D632AD",
"{  c #EC34A0",
"}  c #925083",
"|  c #A75787",
" . c #B0508F",
".. c #836785",
"X. c #86768A",
"o. c #957C8A",
"O. c #8E7995",
"+. c #957992",
"@. c #A87994",
"#. c #9B4DB5",
"$. c #B34BB0",
"%. c #A879A8",
"&. c #DE479B",
"*. c #E0429E",
"=. c #D240A0",
"-. c #E459A8",
";. c #EB4CAC",
":. c #C46BB9",
">. c #CF76BE",
",. c #F568AE",
"<. c #E96ABD",
"1. c #EC71B7",
"2. c #EF6FB4",
"3. c #A81FD1",
"4. c #B835DB",
"5. c #C308C4",
"6. c #C61CCC",
"7. c #CB26CD",
"8. c #B54AD3",
"9. c #B36FC9",
"0. c #DB4FCB",
"q. c #CF6ECD",
"w. c #CC6CD6",
"e. c #EA7FCF",
"r. c #E278D8",
"t. c #E06ED5",
"y. c #D765E0",
"u. c #8B8090",
"i. c #9C959F",
"p. c #908C91",
"a. c #A6889A",
"s. c #A6949F",
"d. c #97AA9D",
"f. c #9C90A1",
"g. c #A89BA8",
"h. c #AAA5AC",
"j. c #B5ADB7",
"k. c #BBB4BC",
"l. c #BABABC",
"z. c #B6B1B6",
"x. c #D989B9",
"c. c #B580C6",
"v. c #CC8ECE",
"b. c #F58DC9",
"n. c #F591C6",
"m. c #EB93DE",
"M. c #EB94CD",
"N. c #CAA6CA",
"B. c #C1BDC3",
"V. c #CEAED5",
"C. c #CEB3DC",
"Z. c #CBB8D3",
"A. c #D4B3D6",
"S. c #E9AAD7",
"D. c #F2A5D9",
"F. c #EBBCD9",
"G. c #DB94E9",
"H. c #E59BE4",
"J. c #E89BE7",
"K. c #E285E0",
"L. c #D9AAE3",
"P. c #D6BCE5",
"I. c #D8BBEA",
"U. c #DDB6F8",
"Y. c #EEA8E3",
"T. c #E8B9E4",
"R. c #F5BBE3",
"E. c #E2BEFB",
"W. c #EDAEEB",
"Q. c #BFC2C3",
"!. c #BDC8C2",
"~. c #C5C3C6",
"^. c #CAC6CB",
"/. c #CBC9CC",
"(. c #C6C8CA",
"). c #CFC9D3",
"_. c #CFC7D2",
"`. c #D1CCD2",
"'. c #D4C4DB",
"]. c #D7CDDC",
"[. c #CDD4D2",
"{. c #C9DCD6",
"}. c #D4D3D5",
"|. c #DAD6DB",
" X c #D5DEDB",
".X c #D9D7DB",
"XX c #FDC4DE",
"oX c #CCE2DA",
"OX c #D9E8DE",
"+X c #C6F1D8",
"@X c #DCC7E7",
"#X c #DCDBE2",
"$X c #DFC4F0",
"%X c #E0CBED",
"&X c #F7C9E7",
"*X c #E4D5E7",
"=X c #FAD5ED",
"-X c #FAD7EB",
";X c #E4CCF4",
":X c #E3C4FA",
">X c #E7CDF9",
",X c #E6C7F6",
"<X c #E6D2F3",
"1X c #EBD4FB",
"2X c #EBDAF5",
"3X c #F7DAF4",
"4X c #F1CBF4",
"5X c #D5E9E1",
"6X c #DBE7E2",
"7X c #DAF1E9",
"8X c #E2EAE5",
"9X c #E7E9EA",
"0X c #E7F8EC",
"qX c #F3FFEF",
"wX c #FCE2F3",
"eX c #F3E4FD",
"rX c #F8EAF8",
"tX c #EAFAF2",
"yX c #F4F5F5",
"uX c #FCF5FD",
"iX c #F5FFFC",
"pX c #FFFFFF",
"aX c #F6FDF6",
/* pixels */
"                        `.)._._.).^.^.).                        ",
"                  '.Z.Z.].9XyXpXuXyX#X_.B.k.`.                  ",
"              @XV.'.uXpXpXpXpXpXpXpXpXpXpX9XB.k.                ",
"            P.Z.pXpXpXtX.Xl.g.a.a.h.l.}.9XpXaX9Xk.^.            ",
"          C.*XpXpX8X~.+.V c v a a 2 2 u o.(.0XaXpXB.B.          ",
"        C.2XpXpX[.+.e g g h  .+X!.x v d.o.V s.oXpXpX^.~.        ",
"      P.*XpXiXQ.i - 6 P M.[ S.pX'.M x.iX[.d d a.{.pXpXl.}.      ",
"    <X@XpXpXQ.e % j z >.pXaXpXpX-X-.&XpXS.M l f @.{.pXpXk.      ",
"    I.pXpX Xi q L T J M.pXpXpXpXpXpXpXpX-X1.^ N l a.7XpX#X~.    ",
"  ;X;XpXyX..7 T.S.W.<.D.pXpXpXpXpXpXpXpXpXpXwX-.M n z.qXpX~.    ",
"  $XpXpX^.7 8 T.T.&X2.&XpXpXpXuX-XpXpXpXpXpXpXpX-.f C OXpX|./.  ",
"  ;XpXaXO.4 $.Y.D.n.,.pXpXpXpXXX! ;.<.&XpXpXpXpX-XN n k.iXpX^.  ",
"<X1XpX8Xw 4 T.=XrX;.,.pXpXpXpXn.B ~ W ~ wXpXpXpXpX*.k @.0XpX/.  ",
";XeXpXB.9 8 q.rXR./ n.pXpXpXpX1.! W W ) wXpXpXpXpX=.k C 5XpX}.|.",
";XuXpXh.4 L G.Y.XX{ XXpXpXpXpXuX3XD.K.&XpXpXpXpX&XQ N | [.pX|.|.",
">XpXpXf.; 9.W.Y Y.b.3XpXpXpXpXpXpXpXpXpXpXpXpXpX;.Q x b (.pX*X`.",
">XpXpXf.* #.3XG.K.t.pXpXpXpXpXpXpXpXpXpXpXpXY.0.) [ K C ^.pX8XN.",
">XuXpXg.3 9.8.G.y.y.pXpXpXpXm.y.J.=XpXpXpXpXm.( ] [ K P }.pX0Xx.",
">XeXpXl.; _.8.w.J.G.pXpXpXpX0.U _ _ m.pXpXpXpXr.( ' J  .6XpX7X:.",
"1X1XpX8X* w ,XE.4.>XpXpXpXuX6.5.7._ ] pXpXpXpX=X` T K @.tXpX5X  ",
"  >XpXiXX.& A I 3.pXpXpXpX1X6.5._ U t.pXpXpXpXrX' H m k.pXpX).  ",
"  >XuXpX/.> 3 D 9.pXpXpXpXpXuX4XH.J.pXpXpXpXpX&XH g } 7XpXtXv.  ",
"  >X1XpXaXX.= 5 G.pXpXpXpXpXpXpXpXpXpXpXpXpXpX:.- < j.pXpXOX    ",
"    E.pXpXOXp O S #.L.pXpXpXpXpXpXpXpXpXpXpXV.- % a.tXpXtXN.    ",
"    1X:XpXpX(.0 O = 9.pXrXR L.pXpXpXpXaX*X%.% X ..OXpXpX{.      ",
"      E.1XpXpX~.t o O.pXC.5 v.iX*XG L S - . + X. XpXpX5Xv.      ",
"        U.eXpXpX[.F t Z 0 * l.0X%.@ + . + 1 i.8XpXpX#XV.        ",
"          U.1XpXpXyXj.a 1 * y Z 1 @ $ r p.[.tXpXpX'.#X          ",
"            U.:XpXpXpX9X}.l.i.O.p.h.l.9XyXpXpXrXC.@X            ",
"              >XU.>XuXpXpXpXpXpXpXpXpXpXpXrXP.C.                ",
"                  >XU.U.>XeXuXpXpXuX2X%XP.P.%X                  ",
"                        ;X;X$X;X;X%X$X%X                        "
};
