/* XPM */
static char *_a699e9d66fc4c7cdb8fb66a1e227151FOwqxYpIf9Pjf7Xs[] = {
/* columns rows colors chars-per-pixel */
"32 32 179 2 ",
"   c None",
".  c #F18100",
"X  c #F18300",
"o  c #F18500",
"O  c #F28500",
"+  c #F28B00",
"@  c #F38D00",
"#  c #F38E00",
"$  c #F38F00",
"%  c #F39105",
"&  c #F39106",
"*  c #F39107",
"=  c #F39207",
"-  c #F39208",
";  c #F39209",
":  c #F39309",
">  c #F3930A",
",  c #F3930B",
"<  c #F3940B",
"1  c #F3940C",
"2  c #F3940D",
"3  c #F3950E",
"4  c #F3950F",
"5  c #F4950E",
"6  c #F4950F",
"7  c #F39510",
"8  c #F39412",
"9  c #F49611",
"0  c #F49612",
"q  c #F49712",
"w  c #F49713",
"e  c #F49714",
"r  c #F49715",
"t  c #F49814",
"y  c #F49815",
"u  c #F49816",
"i  c #F49917",
"p  c #F49918",
"a  c #F49919",
"s  c #F49A19",
"d  c #F49A1A",
"f  c #F49A1B",
"g  c #F49B1B",
"h  c #F49B1D",
"j  c #F49C1F",
"k  c #F49D20",
"l  c #F49D21",
"z  c #F49E22",
"x  c #F5A028",
"c  c #F4A029",
"v  c #F5A129",
"b  c #F5A12A",
"n  c #F5A22B",
"m  c #F5A22C",
"M  c #F5A12E",
"N  c #F5A32E",
"B  c #F5A32F",
"V  c #F5A430",
"C  c #F5A431",
"Z  c #F5A636",
"A  c #F5A737",
"S  c #F5A738",
"D  c #F5A839",
"F  c #F6A83A",
"G  c #F6AA3E",
"H  c #F6AA3F",
"J  c #F6AB3F",
"K  c #F6AB40",
"L  c #F6AB41",
"P  c #F6AC43",
"I  c #F6AC44",
"U  c #F6AD45",
"Y  c #F6AD46",
"T  c #F6AE46",
"R  c #F6AE48",
"E  c #F6B04C",
"W  c #F6B04D",
"Q  c #F7B353",
"!  c #F7B354",
"~  c #F7B454",
"^  c #F7B558",
"/  c #F7B65A",
"(  c #F7B75C",
")  c #F7B95F",
"_  c #F8B961",
"`  c #F8BC66",
"'  c #F8BD68",
"]  c #F8BD6A",
"[  c #F8BE6B",
"{  c #F8BE6C",
"}  c #F8BF6D",
"|  c #F8BF6F",
" . c #F8C070",
".. c #F8C172",
"X. c #F8C173",
"o. c #F8C276",
"O. c #F8C37F",
"+. c #F9C67D",
"@. c #F9C67E",
"#. c #F9C77F",
"$. c #F9C881",
"%. c #F9C984",
"&. c #F9C985",
"*. c #F9CA87",
"=. c #F9CA88",
"-. c #FACF92",
";. c #FAD094",
":. c #FAD095",
">. c #FAD197",
",. c #FAD198",
"<. c #FAD298",
"1. c #FAD39B",
"2. c #FAD39C",
"3. c #FAD49C",
"4. c #FAD49D",
"5. c #FAD49E",
"6. c #FAD59F",
"7. c #FAD5A0",
"8. c #FBD5A1",
"9. c #FAD6A2",
"0. c #FBD7A3",
"q. c #FBD7A4",
"w. c #FBD7A5",
"e. c #FBD8A8",
"r. c #FBD9A9",
"t. c #FBDAAC",
"y. c #FBDBAE",
"u. c #FBDDB2",
"i. c #FBDDB3",
"p. c #FBDEB3",
"a. c #FBDEB4",
"s. c #FCDEB4",
"d. c #FCDEB5",
"f. c #FCDFB7",
"g. c #FCE0B8",
"h. c #FCE0B9",
"j. c #FCE2BE",
"k. c #FCE4C2",
"l. c #FCE6C6",
"z. c #FCE6C8",
"x. c #FCE7C9",
"c. c #FCE8CB",
"v. c #FDE8CC",
"b. c #FDE9CC",
"n. c #FDE9CE",
"m. c #FDEBD2",
"M. c #FDEBD3",
"N. c #FDECD3",
"B. c #FDEDD6",
"V. c #FDEDD7",
"C. c #FDEED8",
"Z. c #FDEED9",
"A. c #FDEEDA",
"S. c #FDEFDA",
"D. c #FDEFDB",
"F. c #FDF0DC",
"G. c #FDF0DD",
"H. c #FDF0DE",
"J. c #FEF3E5",
"K. c #FEF4E6",
"L. c #FEF4E7",
"P. c #FEF6EC",
"I. c #FEF8EE",
"U. c #FEF8F0",
"Y. c #FEF9F1",
"T. c #FEF9F2",
"R. c #FEFAF3",
"E. c #FFFBF5",
"W. c #FFFBF6",
"Q. c #FFFCF7",
"!. c #FFFCF8",
"~. c #FFFCF9",
"^. c #FFFDF9",
"/. c #FFFDFA",
"(. c #FFFDFB",
"). c #FFFEFC",
"_. c #FFFEFE",
"`. c #FFFFFE",
"'. c white",
/* pixels */
"                              d d                               ",
"                      d d d d d d d d d d                       ",
"                  d d d d d d d d d d d d d d                   ",
"              d d d d d d d e 0 0 t d d d d d d d               ",
"            d d d d d 3 % u z Z A n 0 % 8 d d d d d             ",
"          d d d d 8 - P -.M.W.'.'.T.m.-.P - 0 d d d d           ",
"        d d d d 3 n y.'.'.'.'.'.'.'.'.'.'.s.n < d d d d         ",
"      d d d d - R P.'.D.y.p.d.d.p.p.u.u.j.J.I./ % h d d d       ",
"      d d d < W '.'.'.G # - , - 3 - - < - 8 L d./ - d d d       ",
"    d d d 0 n P.'.'.I.k e d h e e e t d d d 3 3 9.D 0 d d d     ",
"    d d d - p.'.'.'.x.3 d d d k V V M t t h d , Q g.- d d d     ",
"  d d d 6 P '.'.T./.5.% h t h Z././.Q.m.n e d e M '.T 0 d d d   ",
"  d d d % 1.'.j.8 *.o.% u - L '.'.'.'.'.T 3 d , T '.1.% d d d   ",
"  d d d e Z.'.$.X 1.$.n Z j @.T.T.T.J.-.e d d # e.'.Z.0 d d d   ",
"  d d t n W.'.*.M k.f.2.1.x.-.d z n k < d t d *.'.'.W.n t d d   ",
"d d d 0 S './.9.f.9.o # o >./ % e e t d d 6 ..'.'.'.'.D 0 d d d ",
"d d d 0 S '.m.+ T J.>.5.>.F.M 0 d d 0 6 g d < =.'.'.'.A 0 d d d ",
"  d d 0 M '.9.X @.w.L W P ..H.Z.D.D.c./ 8 d t t J.'.Q.M t d d   ",
"  d d d t J.c.O.V.T % 0 % ` '.'.'.'.'.n.% d d 6 l.'.Z.t d d d   ",
"  d d d % 5.'.'.W.h t d % 9.'.'.'.'.'...< d d 0 Z.'.5.% d d d   ",
"  d d d 6 T '.'.x.3 d d t P  .[ [ ` G 3 d h , G '.'.T 6 d d d   ",
"    d d d : g.'.1.% d d g 0 % < - - 0 d d - t c.'.g.- d d d     ",
"    d d d 0 M '.` + - - < % < - - - - % 0 ! V.'.T.M 0 d d d     ",
"      d d d : ) e.[ | | [  .[ |  .| @.w.Z.'.'.'.Q < d d d       ",
"      d d d d % _ '.'.'.'.'.'.'.'.'.'.'.'.'.T.~ % d d d d       ",
"        d d d h - V f.'.'.'.'.'.'.'.'.'.'.d.V - d d d d         ",
"          d d d d 0 - R 5.Z./.'.'./.Z.5.T - 0 d d d d           ",
"            d d d d h 3 % d M G G M i % 3 j d d d d             ",
"              d d d d d d d t 0 8 t t d d d d d d               ",
"                  d d d d d d d g d d d d d d                   ",
"                      d d d d d d d d d d                       ",
"                            d d d d                             "
};
