/* XPM */
static char *ay98n_63giy[] = {
/* columns rows colors chars-per-pixel */
"16 16 155 2 ",
"   c None",
".  c #380034",
"X  c #4C003E",
"o  c #2B0042",
"O  c #380951",
"+  c #3E0070",
"@  c #4B1E50",
"#  c #660C55",
"$  c #760057",
"%  c #412643",
"&  c #690377",
"*  c #652B67",
"=  c #663A79",
"-  c #76317A",
";  c #78377C",
":  c #60416A",
">  c #6B5167",
",  c #6F577B",
"<  c #961155",
"1  c #8F0063",
"2  c #B22D74",
"3  c #DC007B",
"4  c #C12373",
"5  c #87416A",
"6  c #88447D",
"7  c #865170",
"8  c #84587C",
"9  c #AA4276",
"0  c #6D1A86",
"q  c #773C8E",
"w  c #B4008B",
"e  c #A41585",
"r  c #BD00AA",
"t  c #B900B7",
"y  c #CB0096",
"u  c #D81F98",
"i  c #D73488",
"p  c #E23FB6",
"a  c #81489D",
"s  c #B04382",
"d  c #B24880",
"f  c #B65593",
"g  c #827F84",
"h  c #9B7E91",
"j  c #984EA8",
"k  c #BB75A6",
"l  c #BA6ABB",
"z  c #DF5CA2",
"x  c #C45AB3",
"c  c #F26DB8",
"v  c #B353D5",
"b  c #E350CC",
"n  c #EF7FD1",
"m  c #E17BDD",
"M  c #E27EF1",
"N  c #89838B",
"B  c #A69A9F",
"V  c #9A8CA0",
"C  c #B686BB",
"Z  c #A2A1A0",
"A  c #AFA7B0",
"S  c #B1A8B4",
"D  c #B8AEBC",
"F  c #CCA6B8",
"G  c #C3B4BE",
"H  c #FF8CC0",
"J  c #ED9BCD",
"K  c #F392D4",
"L  c #DDA0D9",
"P  c #EFABD9",
"I  c #FAA4D1",
"U  c #FCB4D8",
"Y  c #E595EC",
"T  c #E895EA",
"R  c #E79DEB",
"E  c #ECA6E6",
"W  c #E8B2EA",
"Q  c #FFBDE7",
"!  c #F5B6EF",
"~  c #E4A3F6",
"^  c #C6C0C6",
"/  c #C7C5C6",
"(  c #CBD1CD",
")  c #D2D8CD",
"_  c #D2D0D5",
"`  c #D7D2D5",
"'  c #D8D6D7",
"]  c #D7D8D8",
"[  c #D5DAD9",
"{  c #D8D8DA",
"}  c #FEC2DD",
"|  c #E8C6E5",
" . c #FDCAE3",
".. c #F4C2EB",
"X. c #F4C6ED",
"o. c #F8C7E8",
"O. c #FFCDEB",
"+. c #EAD2E2",
"@. c #E8D3ED",
"#. c #E8DDEE",
"$. c #EBDDF2",
"%. c #ECDFF4",
"&. c #F6D7F6",
"*. c #FBD9F4",
"=. c #F6DEF9",
"-. c #F0DDFD",
";. c #FFD8FF",
":. c #E1E3E4",
">. c #E7ECEA",
",. c gray92",
"<. c #E6F0E3",
"1. c #EBF3E7",
"2. c #E4F9EC",
"3. c #EFE0F1",
"4. c #ECE6F0",
"5. c #EFE2F7",
"6. c #EFEFF1",
"7. c #F0EEF4",
"8. c #FAEAF8",
"9. c #FBEAF8",
"0. c #F8E8FF",
"q. c #F8ECFE",
"w. c #FBECFF",
"e. c #FBEDFF",
"r. c #FDEDFF",
"t. c #EAF5F0",
"y. c #ECF6F2",
"u. c #EEF5F4",
"i. c #EEFAF3",
"p. c #EAFDF4",
"a. c #E9FFF6",
"s. c #EEFCF5",
"d. c #F0F4F3",
"f. c #FEF0F7",
"g. c #F2FBF5",
"h. c #F4F6F9",
"j. c #F4F5FB",
"k. c #FDF0FB",
"l. c #FFF5FF",
"z. c #FFF7FF",
"x. c #F6F8F9",
"c. c #F6F9F9",
"v. c #F2FFFC",
"b. c #F0FFFE",
"n. c #F7FFFF",
"m. c #F8F8FE",
"M. c #FEF9FD",
"N. c #FFF9FF",
"B. c #FFFAFF",
"V. c #FAFFFC",
"C. c #FBFFFF",
"Z. c #FFFDFF",
"A. c #FFFFFE",
"S. c #FFFEFF",
"D. c white",
/* pixels */
"          4.h.c.c.6.            ",
"      #.m.s.{ G / ` y.>.        ",
"    $.D.( 6 1 h 5 7 B t.d.      ",
"  5.D.A X e P D.J +.2 < i.u.    ",
"  D.L : x J D.D.D.D.O.i 9 b.,.  ",
"q.V.- l o.U D. .c o.D.D.4 F b.  ",
"D.[ & W H } D.I 3 p D.D.z d a.  ",
"D.D 0 T n k.D.D.D.9.D.*.u s 2.g.",
"D.S q M Y D.D.E &.D.M.b y f a.| ",
"M.[ = v ~ D.=.t r X.D.! w k n.  ",
"0.D., + ;.D.M.R m k.D...$ ' V.  ",
"  z.<.O a D.D.D.D.D.9.# 8 D.L   ",
"    D.) o V j @.C * . > D.3.    ",
"    -.D.1.N : g @ % Z D.h.      ",
"        r.z.7._ :.D.D.%.        ",
"            e.e.e.              "
};
