/* XPM */
static char *a13sb_m9rr2[] = {
/* columns rows colors chars-per-pixel */
"64 64 249 2 ",
"   c None",
".  c #0A000A",
"X  c #160016",
"o  c #040014",
"O  c #220019",
"+  c #0D0029",
"@  c #14002B",
"#  c #280028",
"$  c #38002E",
"%  c #280637",
"&  c #36013A",
"*  c #2D1B34",
"=  c #39253B",
"-  c #50033A",
";  c #720038",
":  c #2B0045",
">  c #370048",
",  c #3A0155",
"<  c #3D1E42",
"1  c #372445",
"2  c #490749",
"3  c #570248",
"4  c #4A0457",
"5  c #550558",
"6  c #50134F",
"7  c #78055B",
"8  c #6B0C53",
"9  c #53304E",
"0  c #6C3056",
"q  c #4B0564",
"w  c #570369",
"e  c #580877",
"r  c #55086C",
"t  c #671664",
"y  c #630B7C",
"u  c #750C6D",
"i  c #4F2462",
"p  c #712E72",
"a  c #5A4567",
"s  c #6F526B",
"d  c #736C75",
"f  c #645A5D",
"g  c #99014B",
"h  c #980A56",
"j  c #940F51",
"k  c #AA145E",
"l  c #990565",
"z  c #881D77",
"x  c #8F1070",
"c  c #A7177A",
"v  c #AF1072",
"b  c #97247D",
"n  c #BB3479",
"m  c #AB2A6D",
"M  c #D2187C",
"N  c #CD0579",
"B  c #EB027A",
"V  c #EE006E",
"C  c #C2347D",
"Z  c #8F5779",
"A  c #A5467A",
"S  c #7C807B",
"D  c #5A0282",
"F  c #680489",
"G  c #6D0495",
"H  c #77039B",
"J  c #78138D",
"K  c #7D09A6",
"L  c #742E8A",
"P  c #7A5E85",
"I  c #7F7683",
"U  c #870488",
"Y  c #8E128C",
"T  c #B40D8C",
"R  c #9D2184",
"E  c #8F2B93",
"W  c #A82488",
"Q  c #BC3183",
"!  c #B82796",
"~  c #B4288F",
"^  c #8801B6",
"/  c #8C0DAD",
"(  c #B508AF",
")  c #9D34B2",
"_  c #B530A8",
"`  c #DC069A",
"'  c #D1108C",
"]  c #E61A98",
"[  c #E60A8D",
"{  c #D42585",
"}  c #CA3685",
"|  c #C72B9C",
" . c #CD3295",
".. c #D93797",
"X. c #D0308D",
"o. c #EB2898",
"O. c #F42D8F",
"+. c #C502AA",
"@. c #C805B7",
"#. c #CC17BB",
"$. c #D616AE",
"%. c #C82AA8",
"&. c #D928AD",
"*. c #D732A7",
"=. c #D62AB6",
"-. c #D533B6",
";. c #E332AC",
":. c #E631A6",
">. c #E62FA6",
",. c #934B90",
"<. c #837C88",
"1. c #907293",
"2. c #AF7696",
"3. c #974EAA",
"4. c #B34EAB",
"5. c #9878A9",
"6. c #9769AE",
"7. c #A579BA",
"8. c #AB6BB1",
"9. c #AD5693",
"0. c #D24F99",
"q. c #D24FA9",
"w. c #E94DB1",
"e. c #CA72AC",
"r. c #E774B8",
"t. c #EC6AB5",
"y. c #E25A9C",
"u. c #9901C4",
"i. c #B804C4",
"p. c #AD0CD0",
"a. c #B032D0",
"s. c #C514C7",
"d. c #C20AC7",
"f. c #CC26CA",
"g. c #CD26C7",
"h. c #D12AC5",
"j. c #CC34CF",
"k. c #AD70C8",
"l. c #BE72F4",
"z. c #BB6FF2",
"x. c #BB5ECF",
"c. c #D855CE",
"v. c #D074D1",
"b. c #EA79CC",
"n. c #C17CF3",
"m. c #D367E3",
"M. c #CC53E0",
"N. c #7B8788",
"B. c #88858C",
"V. c #8C8491",
"C. c #8E8A93",
"Z. c #958B99",
"A. c #98959C",
"S. c #8B9390",
"D. c #91A798",
"F. c #9A89A4",
"G. c #9D97A3",
"H. c #A58AA8",
"J. c #B88DA8",
"K. c #A29BA5",
"L. c #A598AA",
"P. c #AB99B3",
"I. c #B692B4",
"U. c #9BA6A6",
"Y. c #9FB3AF",
"T. c #AAA5AD",
"R. c #A6A8AB",
"E. c #ADADB2",
"W. c #ABA5B4",
"Q. c #B4AAB7",
"!. c #ACB4B4",
"~. c #AAB7B5",
"^. c #B3B3B5",
"/. c #B5B3BA",
"(. c #BAB5BC",
"). c #BBBBBD",
"_. c #B3BAB9",
"`. c #ABAFAD",
"'. c #B3879E",
"]. c #D091B5",
"[. c #E98BB7",
"{. c #CAA9BC",
"}. c #B5C8BF",
"|. c #9CC1AD",
" X c #C1CDBF",
".X c #B88CC8",
"XX c #BA87D6",
"oX c #BD98D1",
"OX c #BDBCC1",
"+X c #BCB7C1",
"@X c #BCABC3",
"#X c #C09ADB",
"$X c #D68ECA",
"%X c #E689C8",
"&X c #EA96D8",
"*X c #ED91D0",
"=X c #C2BCC4",
"-X c #C8B9C9",
";X c #C8AAD8",
":X c #D2B1CE",
">X c #F6ABD6",
",X c #F0AFD8",
"<X c #C58CE6",
"1X c #C99AEA",
"2X c #C788F5",
"3X c #CD96F5",
"4X c #D39BF3",
"5X c #E89AE4",
"6X c #E18AE4",
"7X c #CEA3EA",
"8X c #D8BAE8",
"9X c #D5A8F5",
"0X c #DCB6F7",
"qX c #D1A8ED",
"wX c #E8A5E9",
"eX c #E7B8EB",
"rX c #EBB6F0",
"tX c #BEC2C3",
"yX c #C7C4C9",
"uX c #CDC8D1",
"iX c #D1CDD3",
"pX c #D5C6DA",
"aX c #D8D5D9",
"sX c #CECDCC",
"dX c #EDCADD",
"fX c #D7E5DC",
"gX c #DBC6E6",
"hX c #DECDED",
"jX c #E5C8E7",
"kX c #F6C8E6",
"lX c #E5DAE7",
"zX c #F9D8EA",
"xX c #E4C9F6",
"cX c #EAD5F8",
"vX c #F6D7F4",
"bX c #FFC4F8",
"nX c #ECEAEC",
"mX c #E6E5E8",
"MX c #EDF9EB",
"NX c #EEE8F1",
"BX c #F5EBFB",
"VX c #F7E9F6",
"CX c #EEFBF5",
"ZX c #F5F4F5",
"AX c #FBF5FB",
"SX c #FFFFFF",
"DX c #F7F7F8",
"FX c #FCE0EC",
"GX c #DEEAE3",
/* pixels */
"                                                    SXmXaXuX-X-X-X-XuXlXZX                                                      ",
"                                            SXpXQ.L.H.L.L.P.W.W.W.W.L.G.A.A.K.).mX                                              ",
"                                      SXpXP.5.H.Q.uXNXSXSXSXSXSXSXSXSXSXZXiX(.K.B.V.W.ZX                                        ",
"                                  SX;X5.5.@XNXSXSXSXSXSXSXSXSXSXSXSXSXSXSXSXSXSXSX=XZ.I Z.mX                                    ",
"                                :X5.7.pXSXSXSXSXSXSXSXSXSXSXSXSXSXSXSXSXSXSXSXSXSXSXSXnXK.d Z.DX                                ",
"                            mX7.5.gXSXSXSXSXSXSXSXSXSXSXSXSXDXZXDXSXSXSXSXSXSXSXSXSXSXSXSXDXZ.d ^.                              ",
"                          ;X6.;XSXSXSXSXSXSXSXSXSXsX!.E.!.^.~.~.^.~.^.`.`.yXnXSXSXSXSXSXSXSXSXaXd <.DX                          ",
"                      AX.X7.NXSXSXSXSXSXSXSXyXG.R.~.E.T.T.I.].J.J.J.K.R.R.~.`.A.R.ZXSXSXSXSXSXSXSXK.d aX                        ",
"                    BXk..XSXSXSXSXSXSXSXQ.C.U.T.P.].2.A x 0 0 9 9 9 0 j Z '.'.K.K.S.S.nXSXSXSXSXSXSXuXf yX                      ",
"                  DX7.;XSXSXSXSXSXSX=XB.K.Q.].,.7 8 l x h Z D.S.S.D.s ; ; - 0 s 2.J.K.S.A.SXSXSXSXSXSXaXs yX                    ",
"                AXk.;XSXSXSXSXSXDXC.A.{.I.p 3 7 b b b c c H.}._._._.A k j 1.|.B.f 0 2.{.D.d yXSXSXSXSXSXnXd uX                  ",
"              SXk.;XSXSXSXSXSXiX<.tX-Xp - 7 b b c W ~ T } sXfXaXfXuXQ m k Q.sX/. X|.; ; ].sXB.A.SXSXSXSXSXGXf iX                ",
"              oXoXSXSXSXSXSX=XI lXH.$ 3 z z b W ! T v N 0.MXnXmXCX:Xv { Q aXGXaXfX{.m j ; A mXD.V.SXSXSXSXSXiXd ZX              ",
"            8Xk.SXSXSXSXSX+XB.nXs $ 8 p z R c q.AXdX%Xq.%XSXDXDXSX%XN M q.CXMXmXCX{.k m m j j lXY.B.SXSXSXSXSX^.<.SX            ",
"          BXk.BXSXSXSXSXyXV.ZX0 & u u Y R W T $XSXSXSXSXSXDXSXSXSXr.N N r.SXCXZXSX].N n n n j g dXY.C.SXSXSXSXSXB.E.            ",
"          XX8XSXSXSXSXaX<.ZX6 @ p u R E T ! T ,XSXSXSXSXSXSXSXSXSXVXkX*XkXSXSXSXSXy.N 0.C C C m g kXD.K.SXSXSXSXZXd nX          ",
"        xXk.SXSXSXSXZXB.GXs 2 3.u x Y T T ! %.VXSXSXSXSXSXSXSXSXSXSXSXSXSXSXSXSXSXr.{ M M ..C C m j FXB.=XSXSXSXSX^.C.          ",
"      SXXXcXSXSXSXSXG.yX7.X pXAXu 4.) ! q.' q.AXSXSXSXSXSXSXSXSXSXSXSXSXSXSXSXSXSXSXzX*Xy.M M 0.C k n GXN.nXSXSXSXSX<.iX        ",
"      gXXXSXSXSXSXuXR.:X& 5 ZX$XU SXq.q.SX' w.SXSXSXSXSXSXSXSXSXSXSXSXSXSXSXSXSXSXSXSXSXSX[.{ M } C g [._.A.SXSXSXSX=XC.        ",
"      <XcXSXSXSXSXG.iXp 2 Y SX$Xq.SXT $XSXN *XSXSXSXSXSXSXSXSXSXSXSXSXSXSXSXSXSXSXSXSXSXSXSXFX..M C C g dXD.sXSXSXSXSXB.lX      ",
"    cX<XSXSXSXSXOX+X@X> u 4.DXSXSXSX>XVX,XN kXSXSXSXSXSXSXSXSXSXSXSXSXSXSXSXSXSXSXSXSXSXSXSXSXVX..M C k y. XS.SXSXSXSXE.A.      ",
"    7XqXSXSXSXSXL.=Xt w z U 4.v.$XkXSXSXt.[ AXSXSXSXSXSXSXSXSXzX>XzXSXSXSXSXSXSXSXSXSXSXSXSXSXSXFXM C C g >XU.aXSXSXSXnXC.DX    ",
"  SX<XNXSXSXSXiX/.I.2 p J _ FXBXv.N [ %XO.w.SXSXSXSXSXSXSXSXSX>XV o.w.t.*XkXSXSXSXSXSXSXSXSXSXSXDXr.M C k y.|.K.SXSXSXSXG.yX    ",
"  cX1XSXSXSXSXP./.,.w U U vXAXeXSX%X,XFXB r.SXSXSXSXSXSXSXSXSX[.B o.] [ ` ] w.zXSXSXSXSXSXSXSXSXSXdXM C C j {.`.ZXSXSXSX^.K.    ",
"  qXqXSXSXSXSX/.Q.4 y U ) DX*.T SXSXSX*XV dXSXSXSXSXSXSXSXSXSXy.[ O.>.>.;.;.` >.AXSXSXSXSXSXSXSXSXVX..{ C g [.^.=XSXSXSXlXC.SX  ",
"  1XxXSXSXSXiXOXI., J U v.SX%X%XAXw.V V B FXSXSXSXSXSXSXSXSXVXO.o.:.>.;.>.;.;.` ,XSXSXSXSXSXSXSXSXSXy.{ } m 9.T.R.SXSXSXSXA.mX  ",
"SX1XNXSXSXSXQ./.1.4 Y U c.zXSXSXSXkX>XO.O.SXSXSXSXSXSXSXSXSX>XB o.>.>.;.;.;.;.$.eXSXSXSXSXSXSXSXSXAX..{ } C m Q.R.SXSXSXSXK.yX  ",
"BX1XSXSXSXSX/.E.p r Y / / _ b.&X&XzXSXO.w.SXSXSXSXSXSXSXSXSX>X] ] ` ` ] &.=.` ;.SXSXSXSXSXSXSXSXSXzX..{ X.C g {.~.nXSXSXSXT.Q.  ",
"cX4XSXSXSXSX).P.q y Y U M.DXSXSX>X;.] [ *XDXSXSXSXSXSXSXSXSXSXAXkX&Xb.w.;.&.w.vXSXSXSXSXSXSXSXSXSX,X' ..X.Q h ].~.sXSXSXSX(.L.  ",
"xX4XSXSXSXSXOXP., y H ) SXVXv.5XSXAX[ [ kXSXSXSXSXSXSXSXSXSXSXSXSXSXSXSXVXvXSXSXSXSXSXSXSXSXSXSXSXt.' *. .Q h ].!.=XSXSXSXyXK.  ",
"xXqXSXSXSXDXOXP.> y F ;XSX( ( ( c.SXb.` FXSXSXSXSXSXSXSXSXSXSXSXSXSXSXSXSXSXSXSXSXSXSXSXSXSXSXSXeX] *... .} k e.!.(.SXSXSXuXK.  ",
"0XqXSXSXSXnXOXH.: y F jXAX^ i.@.@.SXb.$.SXSXSXSXSXSXSXSXSXSXSXSXSXSXSXSXSXSXSXSXSXSXSXSXSXSXSXFX>.$.*.*.| Q k e.E./.SXSXSXiXK.  ",
"0XqXSXSXSXnXyXH.: y D k.SX<Xi.i.6XSXh.c.SXSXSXSXSXSXSXSXSXSXSXSXSXSXSXSXSXSXSXSXSXSXSXSXSXSXbX=.$.-.;.*. .} l e.!./.SXSXSXiXR.  ",
"xX9XSXSXSXZX).P.% e F ) vXSXSXSXSX5X@.5XSXSXSXSXSXSXSXSXSXSXSXSXSXSXSXSXSXSXSXSXSXSXSXSX&Xc.$.$.-.;.&.*.| } v e./.).SXSXSXuXR.  ",
"xX4XSXSXSXSX).L.: q 3.AX) M.vXvX5Xp.i.vXSXSXSXSXSXSXSXSXAXb.5XvXSXSXSXSXSXSXSXSXSXSXSXAX&X+.$.-.-.=.-.%.| ! l ].!.yXSXSXSXyX~.  ",
"cX4XSXSXSXSX).L.> , -XSXK ^ u.p.vXm.i.AXSXSXSXSXSXSXSXSXvX@.@.#.h.c.&XvXSXSXSXSXSXSXSXSXSXkX@.#.=.=.*.%.|  .l ]._.iXSXSXSX+X_.  ",
"BX3XSXSXSXSXE.W.i : gXBXG ^ u.a.SXM.j.SXSXSXSXSXSXSXSXSXwX@.h.g.s.@.@.$.6XSXSXSXSXSXSXSXSXSX&X@.=.=.%.%.| ~ l $X_.ZXSXSXSX/.Q.  ",
"SX3XBXSXSXSXE./.P + 7.SXXX^ ^ wXSXp.m.SXSXSXSXSXSXSXSXSXm.i.g.h.h.h.h.#.+.5XSXSXSXSXSXSXSXSXSX-.#.%.%.%.! ~ c -XE.SXSXSXSX!.:X  ",
"  3XxXSXSXSXsXOXG.+ r gXSXSXSXCX4Xu.9XSXSXSXSXSXSXSXSXSXM.d.f.f.h.h.h.h.+.c.SXSXSXSXSXSXSXSXSX&X( %.%.%.! c 4.Q.W.SXSXSXSX!.:X  ",
"  9X9XSXSXSXSX/.Q.: , D k.hXhX2Xu.p.vXSXSXSXSXSXSXSXSXBXf.s.f.f.g.h.h.h.@.c.SXSXSXSXSXSXSXSXSXeX+.%.! ! ~ l [.}.-XSXSXSXlX_.wX  ",
"  cX3XSXSXSXSXK.).p : e D H ^ ^ u.a.SXSXSXSXSXSXSXSXSXwXi.s.f.f.g.g.h.h.@.b.SXSXSXSXSXSXSXSXSXkX( ! _ ~ W l :XE.ZXSXSXSX+X/.    ",
"  SX2XBXSXSXSXuXOXP.+ e F K ^ ) u.m.SXSXSXSXSXSXSXSXSXrXj.f.d.i.d.d.s.@.#.VXSXSXSXSXSXSXSXSXSXjXT ! ~ W x 9.+XL.SXSXSXSXW.-X    ",
"    4X0XSXSXSXSXK.+X, , D F K K K <XSXSXSXSXSXSXSXSXSXSXAXvXrX6Xm.j.h.c.vXSXSXSXSXSXSXSXSXSXSX5XT R W b 8 :X/.aXSXSXSXZX`.rX    ",
"    cX3XSXSXSXSX+XOXW.+ e L J K K 0XSXSXSXSXSXSXSXSXSXSXSXSXSXSXSXSXSXSXSXSXSXSXSXSXSXSXSXSXSXe.U R b 7 W -XG.SXSXSXSX@X_.      ",
"      2XcXSXSXSXSXG.uXi : D D G / BXSXSXSXSXSXSXSXSXSXSXSXSXSXSXSXSXSXSXSXSXSXSXSXSXSXSXSXSXBXR x z x - :XR.iXSXSXSXSXU.:X      ",
"      xX2XSXSXSXSXyXR.-X+ q e D 3.SXSXSXSXSXSXSXSXSXSXSXSXSXSXSXSXSXSXSXSXSXSXSXSXSXSXSXSXSXe.7 z z - 2.uXG.SXSXSXSXuX~.        ",
"      SX2XcXSXSXSXSXG.uXF.+ e e J 6.XX8XVXSXSXSXSXSXSXSXSXSXSXSXSXSXSXSXSXSXSXSXSXSXSXSXSXgX7 u u - 6 mXV.nXSXSXSXSXL.gX        ",
"        xX2XSXSXSXSXZXV.GXa + q e e D G H 8XSXSXSXSXSXSXSXSXSXSXSXSXSXSXSXSXSXSXSXSXSXSXjX7 8 t - $ aXA.=XSXSXSXSX-X~.          ",
"          2X0XSXSXSXSXaXV.nXi + q r D F G lXSXSXSXBXx.v.wXZXSXSXSXSXSXSXSXSXSXSXSXSXSXI.8 3 8 - O sX`.R.SXSXSXSXZXF.cX          ",
"          AXn.BXSXSXSXSX-XV.nX1 + q i q L DXSXDXSXgXH H / NXSXSXSXSXBXSXSXSXSXSXjXI.z 2 5 6 $ O yX{.C.SXSXSXSXSXP.uX            ",
"            0Xn.SXSXSXSXSX(.C.nXa o > , ,.MXGXnXSX#XG H ) SXSXDXSX8XU E 3.,.E p 5 2 - 6 6 X O uX_.B.SXSXSXSXSX+XY.bX            ",
"              3X3XSXSXSXSXSXOXV.lX<.o + I fXOXiXMX3.e y 8.SXZXMXSXI.w u w 5 5 3 5 6 6 $ . 9 aXR.V.SXSXSXSXSXhXF.BX              ",
"              SXn.9XSXSXSXSXSXiXI yX/.1 * S D.~.^.p e w H.CXaXmXZX,.4 t t 5 6 6 2 & . X V.sXC.G.SXSXSXSXSXNX5.GX                ",
"                SXl.0XSXSXSXSXSXZXV.G.+XB.= * f d q 4 w G.yX X XyXp 4 4 2 2 > % . X d {.!.I yXSXSXSXSXSXnX6.lX                  ",
"                  AXz.9XSXSXSXSXSXSX+XB.T.L.1.a % @ @ , d S.S.D.B.> & % # . . = Z T.R.S.A.SXSXSXSXSXSXlX6.aX                    ",
"                    AXn.3XSXSXSXSXSXSXSXW.Z.T.K.K.Z.P 9 9 * * = % + # < f B.A.U.Y.A.S.mXSXSXSXSXSXSXpX6.pX                      ",
"                      SX2Xn.AXSXSXSXSXSXSXSXyXG.`.^.^.`.F.F.F.Z.Z.K.R.R.`._.^.D.R.ZXSXSXSXSXSXSXSX@X6.lX                        ",
"                          9Xz.0XSXSXSXSXSXSXSXSXSXsX^.E.^.).+X).}.{.^.`.`.{.mXSXSXSXSXSXSXSXSXcX7.k.AX                          ",
"                            cXn.n.cXSXSXSXSXSXSXSXSXSXSXSXSXDXZXDXSXSXSXSXSXSXSXSXSXSXSXSXDXoX6.;X                              ",
"                              SX0Xl.2XxXSXSXSXSXSXSXSXSXSXSXSXSXSXSXSXSXSXSXSXSXSXSXSXZXoXk..XZX                                ",
"                                  SX9Xn.2X9XBXSXSXSXSXSXSXSXSXSXSXSXSXSXSXSXSXSXSXgXXXk.XXNX                                    ",
"                                      SXxX2X<X2XqXxXBXSXSXSXSXSXSXSXSXSXDXcX8X#XXXXX;XBX                                        ",
"                                            SXxXqX1X1X1X1X7X7X7X7X7X1X#X1XoXoX8XNX                                              ",
"                                                    SXcXxXxX0X8X0XgXhXcXBX                                                      "
};
